<svg width="15" height="15" viewBox="0 0 15 15" fill="none" xmlns="http://www.w3.org/2000/svg">
<path d="M3.0375 12.8125V13.1742C2.94398 13.0727 2.9 12.9586 2.9 12.8125V2.1875C2.9 2.04141 2.94398 1.92734 3.0375 1.82583V2.1875V5.65625V6.05625H3.4375H11.5625H11.9625V5.65625V2.1875V1.82583C12.056 1.92734 12.1 2.04141 12.1 2.1875V12.8125C12.1 12.9586 12.056 13.0727 11.9625 13.1742V12.8125V6.59375V6.19375H11.5625H3.4375H3.0375V6.59375V12.8125ZM3.4375 13.35C3.29141 13.35 3.17734 13.306 3.07583 13.2125H3.4375H11.5625H11.9242C11.8227 13.306 11.7086 13.35 11.5625 13.35H3.4375ZM3.07583 1.7875C3.17734 1.69398 3.29141 1.65 3.4375 1.65H11.5625C11.7086 1.65 11.8227 1.69398 11.9242 1.7875H11.5625H3.4375H3.07583ZM5.29688 4.44375C5.27327 4.44375 5.26209 4.44002 5.25839 4.43856C5.25532 4.43735 5.25094 4.43526 5.24378 4.42809C5.23662 4.42093 5.23453 4.41656 5.23331 4.41348C5.23185 4.40979 5.22813 4.3986 5.22813 4.375V3.46875C5.22813 3.44515 5.23185 3.43396 5.23331 3.43027C5.23453 3.42719 5.23662 3.42282 5.24378 3.41566C5.25094 3.40849 5.25532 3.4064 5.25839 3.40519C5.26208 3.40373 5.27327 3.4 5.29688 3.4C5.32048 3.4 5.33167 3.40373 5.33536 3.40519C5.33843 3.4064 5.34281 3.40849 5.34997 3.41566C5.35713 3.42282 5.35922 3.42719 5.36044 3.43027C5.3619 3.43396 5.36563 3.44515 5.36563 3.46875V4.375C5.36563 4.3986 5.3619 4.40979 5.36044 4.41348C5.35922 4.41656 5.35713 4.42093 5.34997 4.4281C5.34281 4.43526 5.33843 4.43735 5.33536 4.43856C5.33167 4.44002 5.32048 4.44375 5.29688 4.44375ZM5.29688 10.0844C5.27327 10.0844 5.26208 10.0806 5.25839 10.0792C5.25532 10.078 5.25094 10.0759 5.24378 10.0687C5.23662 10.0616 5.23453 10.0572 5.23331 10.0541C5.23185 10.0504 5.22813 10.0392 5.22813 10.0156V7.89062C5.22813 7.86702 5.23185 7.85583 5.23331 7.85214C5.23453 7.84907 5.23662 7.84469 5.24378 7.83753L4.96094 7.55469L5.24378 7.83753C5.25094 7.83037 5.25532 7.82828 5.25839 7.82706C5.26208 7.8256 5.27327 7.82188 5.29688 7.82188C5.32048 7.82188 5.33167 7.8256 5.33536 7.82706C5.33843 7.82828 5.34281 7.83037 5.34997 7.83753C5.35713 7.84469 5.35922 7.84907 5.36044 7.85214C5.3619 7.85584 5.36563 7.86702 5.36563 7.89062V10.0156C5.36563 10.0392 5.3619 10.0504 5.36044 10.0541C5.35922 10.0572 5.35713 10.0616 5.34997 10.0687C5.34281 10.0759 5.33843 10.078 5.33536 10.0792C5.33167 10.0806 5.32048 10.0844 5.29688 10.0844Z" fill="#335C87" stroke="#707070" stroke-width="0.8"/>
</svg>
