<svg width="15" height="16" viewBox="0 0 15 16" fill="none" xmlns="http://www.w3.org/2000/svg">
<path d="M8.1312 2.32495L11.8187 3.96245C12.8812 4.4312 12.8812 5.2062 11.8187 5.67495L8.1312 7.31245C7.71245 7.49995 7.02495 7.49995 6.6062 7.31245L2.9187 5.67495C1.8562 5.2062 1.8562 4.4312 2.9187 3.96245L6.6062 2.32495C7.02495 2.13745 7.71245 2.13745 8.1312 2.32495Z" stroke="#707070" stroke-linecap="round" stroke-linejoin="round"/>
<path d="M1.875 7.375C1.875 7.9 2.26875 8.50625 2.75 8.71875L6.99375 10.6063C7.31875 10.75 7.6875 10.75 8.00625 10.6063L12.25 8.71875C12.7313 8.50625 13.125 7.9 13.125 7.375" stroke="#707070" stroke-linecap="round" stroke-linejoin="round"/>
<path d="M1.875 10.5C1.875 11.0813 2.21875 11.6062 2.75 11.8437L6.99375 13.7313C7.31875 13.875 7.6875 13.875 8.00625 13.7313L12.25 11.8437C12.7813 11.6062 13.125 11.0813 13.125 10.5" stroke="#707070" stroke-linecap="round" stroke-linejoin="round"/>
</svg>
