<svg width="21" height="20" viewBox="0 0 21 20" fill="none" xmlns="http://www.w3.org/2000/svg">
<path d="M2.05139 6.48335V14.5917C2.05139 16.175 3.17639 16.825 4.54306 16.0417L6.50139 14.925C6.92639 14.6834 7.63473 14.6584 8.07639 14.8834L12.4514 17.075C12.8931 17.2917 13.6014 17.275 14.0264 17.0334L17.6347 14.9667C18.0931 14.7 18.4764 14.05 18.4764 13.5167V5.40835C18.4764 3.82502 17.3514 3.17502 15.9847 3.95835L14.0264 5.07502C13.6014 5.31669 12.8931 5.34169 12.4514 5.11669L8.07639 2.93335C7.63473 2.71669 6.92639 2.73335 6.50139 2.97502L2.89306 5.04169C2.42639 5.30835 2.05139 5.95835 2.05139 6.48335Z" stroke="#D84E67" stroke-width="1.5" stroke-linecap="round" stroke-linejoin="round"/>
<path d="M7.27637 3.33337V14.1667" stroke="#D84E67" stroke-width="1.5" stroke-linecap="round" stroke-linejoin="round"/>
<path d="M13.2513 5.51672V16.6667" stroke="#D84E67" stroke-width="1.5" stroke-linecap="round" stroke-linejoin="round"/>
</svg>
