<svg width="17" height="17" viewBox="0 0 17 17" fill="none" xmlns="http://www.w3.org/2000/svg">
<path d="M5.97042 9.84041C6.08499 9.87647 6.2026 9.89258 6.31529 9.89221C6.81866 9.89057 7.39806 9.54585 7.46797 8.8498L7.46797 8.84976C7.56801 7.85299 7.44039 6.68241 6.98693 5.72011C6.58938 4.87644 5.91994 4.16061 4.92446 3.9214C4.9427 3.90951 4.96075 3.89726 4.97859 3.88467C5.27145 3.67794 5.49569 3.38709 5.6271 3.05193C5.75844 2.71697 5.79249 2.34977 5.72583 1.99573L5.23811 2.08757L5.72583 1.99573C5.65916 1.64168 5.49404 1.31289 5.24734 1.05228C5.00036 0.791358 4.68224 0.610326 4.3317 0.536666C3.98089 0.462948 3.61759 0.501067 3.289 0.644851C2.9608 0.788466 2.68475 1.02966 2.4925 1.3336C2.30042 1.63731 2.1994 1.99165 2.1994 2.35202C2.1994 2.5915 2.244 2.82926 2.33131 3.05193C2.41862 3.27463 2.54728 3.47867 2.71113 3.65176C2.81121 3.75749 2.92328 3.85045 3.04498 3.92852C2.03979 4.18193 1.3746 4.92197 0.985609 5.78023C0.554962 6.7304 0.433984 7.87304 0.531954 8.8503L0.53198 8.85055C0.60209 9.54635 1.18105 9.89144 1.68465 9.89315C1.79641 9.89353 1.91299 9.87769 2.02665 9.84226C2.02461 10.2579 2.02124 10.8032 2.01573 11.402C2.00366 12.7148 1.98141 14.2771 1.94086 15.2962C1.9264 15.6595 2.05507 15.9761 2.29444 16.1969C2.52382 16.4084 2.81964 16.5001 3.09673 16.4998C3.41361 16.4993 3.75166 16.3726 3.98967 16.1209C4.00673 16.1395 4.02439 16.1575 4.04265 16.175C4.15695 16.2847 4.29233 16.3707 4.44155 16.4266L4.6169 15.9584L4.44155 16.4266C4.58016 16.4785 4.72728 16.5031 4.8753 16.4988C5.02617 16.5059 5.1766 16.4811 5.31733 16.4263L5.13602 15.9604L5.31733 16.4263C5.46892 16.3673 5.60435 16.2755 5.71559 16.1591C5.82674 16.0427 5.91154 15.9042 5.96558 15.7534C6.01887 15.6048 6.04141 15.4469 6.03246 15.2898C5.99198 14.2722 5.97692 12.7145 5.9721 11.404C5.96989 10.8033 5.96983 10.2565 5.97042 9.84041Z" stroke="#707070"/>
<path d="M10.7373 9.89213L10.278 12.5608C10.2022 13.0013 10.5071 13.4643 10.9942 13.4974C10.9819 14.0975 10.9647 14.697 10.9409 15.2962C10.9264 15.6595 11.0551 15.9761 11.2944 16.1969C11.5238 16.4084 11.8196 16.5001 12.0967 16.4998C12.4136 16.4993 12.7517 16.3726 12.9897 16.1209C13.0067 16.1395 13.0244 16.1575 13.0427 16.175L13.0427 16.1751C13.157 16.2847 13.2923 16.3707 13.4415 16.4266L13.6169 15.9584L13.4416 16.4266C13.5802 16.4785 13.7273 16.5031 13.8753 16.4988C14.0262 16.5059 14.1766 16.4811 14.3173 16.4263C14.4689 16.3673 14.6043 16.2755 14.7156 16.1591L14.7156 16.1591C14.8267 16.0427 14.9115 15.9042 14.9656 15.7534C15.0189 15.6048 15.0414 15.4469 15.0325 15.2898C15.0087 14.6926 14.9915 14.0949 14.9792 13.4966C15.4603 13.4578 15.7605 12.9982 15.6852 12.5608L15.2253 9.88901C15.2556 9.89126 15.2856 9.89231 15.3153 9.89221C15.8187 9.89057 16.3981 9.54585 16.468 8.8498L16.468 8.84976C16.568 7.85299 16.4404 6.68241 15.9869 5.72011C15.5894 4.87644 14.9199 4.16061 13.9245 3.9214C13.9427 3.90951 13.9607 3.89726 13.9786 3.88467C14.2714 3.67794 14.4957 3.38709 14.6271 3.05193C14.7584 2.71697 14.7925 2.34977 14.7258 1.99573C14.6592 1.64168 14.494 1.31289 14.2473 1.05227C14.0004 0.791358 13.6822 0.610326 13.3317 0.536666C12.9809 0.462948 12.6176 0.501067 12.289 0.644851L12.4894 1.10292L12.289 0.644851C11.9608 0.788466 11.6847 1.02966 11.4925 1.3336C11.3004 1.63731 11.1994 1.99165 11.1994 2.35202C11.1994 2.5915 11.244 2.82926 11.3313 3.05193C11.4186 3.27463 11.5473 3.47867 11.7111 3.65176L12.0742 3.30804L11.7111 3.65177C11.8112 3.75749 11.9233 3.85045 12.045 3.92852C11.0398 4.18193 10.3746 4.92197 9.98561 5.78023C9.55496 6.7304 9.43398 7.87304 9.53195 8.8503L9.53198 8.85055C9.60209 9.54635 10.1811 9.89144 10.6846 9.89315C10.7021 9.89321 10.7197 9.89287 10.7373 9.89213Z" stroke="#707070"/>
</svg>
