<svg width="15" height="16" viewBox="0 0 15 16" fill="none" xmlns="http://www.w3.org/2000/svg">
<path d="M10.7625 1.75H5.60003C5.35003 1.75 5.11251 1.8375 4.91876 1.9875L3.55001 3.08125C3.00001 3.51875 3.00001 4.34999 3.55001 4.78749L4.91876 5.88124C5.11251 6.03749 5.35628 6.11874 5.60003 6.11874H10.7625C11.3687 6.11874 11.8562 5.63124 11.8562 5.02499V2.83749C11.8562 2.23749 11.3687 1.75 10.7625 1.75Z" stroke="#707070" stroke-linecap="round" stroke-linejoin="round"/>
<path d="M4.25 8H9.41251C9.66251 8 9.90002 8.0875 10.0938 8.2375L11.4625 9.33125C12.0125 9.76875 12.0125 10.6 11.4625 11.0375L10.0938 12.1312C9.90002 12.2875 9.65626 12.3687 9.41251 12.3687H4.25C3.64375 12.3687 3.15625 11.8812 3.15625 11.275V9.08749C3.15625 8.48749 3.64375 8 4.25 8Z" stroke="#707070" stroke-linecap="round" stroke-linejoin="round"/>
<path d="M7.5 8V6.125" stroke="#707070" stroke-linecap="round" stroke-linejoin="round"/>
<path d="M7.5 14.25V12.375" stroke="#707070" stroke-linecap="round" stroke-linejoin="round"/>
<path d="M5.625 14.25H9.375" stroke="#707070" stroke-linecap="round" stroke-linejoin="round"/>
</svg>
