<svg width="11" height="13" viewBox="0 0 11 13" fill="none" xmlns="http://www.w3.org/2000/svg">
<path d="M1.0375 11.8125V12.1742C0.943978 12.0727 0.9 11.9586 0.9 11.8125V1.1875C0.9 1.04141 0.943979 0.927336 1.0375 0.825833V1.1875V4.65625V5.05625H1.4375H9.5625H9.9625V4.65625V1.1875V0.825833C10.056 0.927336 10.1 1.04141 10.1 1.1875V11.8125C10.1 11.9586 10.056 12.0727 9.9625 12.1742V11.8125V5.59375V5.19375H9.5625H1.4375H1.0375V5.59375V11.8125ZM1.4375 12.35C1.29141 12.35 1.17734 12.306 1.07583 12.2125H1.4375H9.5625H9.92417C9.82267 12.306 9.70859 12.35 9.5625 12.35H1.4375ZM1.07583 0.7875C1.17734 0.693979 1.29141 0.65 1.4375 0.65H9.5625C9.70859 0.65 9.82266 0.693978 9.92417 0.7875H9.5625H1.4375H1.07583ZM3.29688 3.44375C3.27327 3.44375 3.26209 3.44002 3.25839 3.43856C3.25532 3.43735 3.25094 3.43526 3.24378 3.42809C3.23662 3.42093 3.23453 3.41656 3.23331 3.41348C3.23185 3.40979 3.22813 3.3986 3.22813 3.375V2.46875C3.22813 2.44515 3.23185 2.43396 3.23331 2.43027C3.23453 2.42719 3.23662 2.42282 3.24378 2.41566C3.25094 2.40849 3.25532 2.4064 3.25839 2.40519C3.26208 2.40373 3.27327 2.4 3.29688 2.4C3.32048 2.4 3.33167 2.40373 3.33536 2.40519C3.33843 2.4064 3.34281 2.40849 3.34997 2.41566C3.35713 2.42282 3.35922 2.42719 3.36044 2.43027C3.3619 2.43396 3.36563 2.44515 3.36563 2.46875V3.375C3.36563 3.3986 3.3619 3.40979 3.36044 3.41348C3.35922 3.41656 3.35713 3.42093 3.34997 3.4281C3.34281 3.43526 3.33843 3.43735 3.33536 3.43856C3.33167 3.44002 3.32048 3.44375 3.29688 3.44375ZM3.29688 9.08438C3.27327 9.08438 3.26208 9.08065 3.25839 9.07919C3.25532 9.07797 3.25094 9.07588 3.24378 9.06872C3.23662 9.06156 3.23453 9.05718 3.23331 9.05411C3.23185 9.05042 3.22813 9.03923 3.22813 9.01562V6.89062C3.22813 6.86702 3.23185 6.85583 3.23331 6.85214C3.23453 6.84907 3.23662 6.84469 3.24378 6.83753L2.96094 6.55469L3.24378 6.83753C3.25094 6.83037 3.25532 6.82828 3.25839 6.82706C3.26208 6.8256 3.27327 6.82188 3.29688 6.82188C3.32048 6.82188 3.33167 6.8256 3.33536 6.82706C3.33843 6.82828 3.34281 6.83037 3.34997 6.83753C3.35713 6.84469 3.35922 6.84907 3.36044 6.85214C3.3619 6.85584 3.36563 6.86702 3.36563 6.89062V9.01562C3.36563 9.03923 3.3619 9.05041 3.36044 9.05411C3.35922 9.05718 3.35713 9.06156 3.34997 9.06872C3.34281 9.07588 3.33843 9.07797 3.33536 9.07919C3.33167 9.08065 3.32048 9.08438 3.29688 9.08438Z" fill="#335C87" stroke="#707070" stroke-width="0.8"/>
</svg>
